<svg width="45" height="44" viewBox="0 0 45 44" fill="none" xmlns="http://www.w3.org/2000/svg">
<path d="M18.8344 28.6807C19.8194 29.3309 20.9669 29.7068 22.1537 29.7681C23.3406 29.8294 24.5222 29.5737 25.5718 29.0285C26.6214 28.4833 27.4994 27.6691 28.1119 26.6732C28.7244 25.6772 29.0481 24.5371 29.0485 23.375M26.1619 18.0657C25.1766 17.4165 24.0293 17.0416 22.8428 16.9811C21.6564 16.9206 20.4754 17.1769 19.4264 17.7224C18.3775 18.2679 17.5001 19.0821 16.8881 20.0778C16.2762 21.0736 15.9527 22.2133 15.9525 23.375" stroke="#FF0000" stroke-linecap="round" stroke-linejoin="round"/>
<path d="M28.0369 23.3749H25.5759L28.9603 20.0667L32.3438 23.3749H29.8828H28.0369ZM16.9631 23.3758H19.4241L16.0397 26.6841L12.6562 23.3758H15.1172H16.9631Z" stroke="#FF0000" stroke-linecap="round" stroke-linejoin="round"/>
</svg>
