<svg width="34" height="28" viewBox="0 0 34 28" fill="none" xmlns="http://www.w3.org/2000/svg">
<path d="M24.4688 3.59375H10.0312C6.99368 3.59375 4.53125 5.60847 4.53125 8.09375V19.9062C4.53125 22.3915 6.99368 24.4062 10.0312 24.4062H24.4688C27.5063 24.4062 29.9688 22.3915 29.9688 19.9062V8.09375C29.9688 5.60847 27.5063 3.59375 24.4688 3.59375Z" stroke="black" stroke-linecap="round" stroke-linejoin="round"/>
<path d="M4.53125 11.723C4.53125 12.9165 5.11071 14.0611 6.14216 14.905C7.17361 15.7489 8.57256 16.223 10.0312 16.223H24.4688C25.9274 16.223 27.3264 15.7489 28.3578 14.905C29.3893 14.0611 29.9688 12.9165 29.9688 11.723" stroke="black" stroke-linecap="round" stroke-linejoin="round"/>
<path d="M10.7345 19.3877C11.4195 19.3877 11.9748 18.9333 11.9748 18.3729C11.9748 17.8125 11.4195 17.3582 10.7345 17.3582C10.0495 17.3582 9.49426 17.8125 9.49426 18.3729C9.49426 18.9333 10.0495 19.3877 10.7345 19.3877Z" stroke="black" stroke-linecap="round" stroke-linejoin="round"/>
<path d="M23.7654 19.3877C24.4504 19.3877 25.0056 18.9333 25.0056 18.3729C25.0056 17.8125 24.4504 17.3582 23.7654 17.3582C23.0804 17.3582 22.5251 17.8125 22.5251 18.3729C22.5251 18.9333 23.0804 19.3877 23.7654 19.3877Z" stroke="black" stroke-linecap="round" stroke-linejoin="round"/>
<path d="M17.1373 23.2683C19.2962 23.2683 21.0464 22.13 21.0464 20.7258C21.0464 19.3216 19.2962 18.1833 17.1373 18.1833C14.9783 18.1833 13.2281 19.3216 13.2281 20.7258C13.2281 22.13 14.9783 23.2683 17.1373 23.2683Z" stroke="black" stroke-linecap="round" stroke-linejoin="round"/>
<path d="M15.314 21.1797C15.6811 21.1797 15.9788 20.9362 15.9788 20.6358C15.9788 20.3354 15.6811 20.0919 15.314 20.0919C14.9468 20.0919 14.6492 20.3354 14.6492 20.6358C14.6492 20.9362 14.9468 21.1797 15.314 21.1797Z" stroke="black" stroke-linecap="round" stroke-linejoin="round"/>
<path d="M19.2031 21.1797C19.5703 21.1797 19.868 20.9362 19.868 20.6358C19.868 20.3354 19.5703 20.0919 19.2031 20.0919C18.836 20.0919 18.5383 20.3354 18.5383 20.6358C18.5383 20.9362 18.836 21.1797 19.2031 21.1797Z" stroke="black" stroke-linecap="round" stroke-linejoin="round"/>
<path d="M10.9821 12.8261H23.7675M21.4032 12.8261C22.0182 12.2037 22.4054 11.4516 22.5198 10.6567C22.6343 9.86184 22.4714 9.05671 22.0499 8.33443C21.6285 7.61216 20.9657 7.00227 20.1383 6.5753C19.3109 6.14834 18.3527 5.92175 17.3744 5.92175C16.3962 5.92175 15.438 6.14834 14.6106 6.5753C13.7832 7.00227 13.1204 7.61216 12.6989 8.33443C12.2775 9.05671 12.1146 9.86184 12.229 10.6567C12.3435 11.4516 12.7306 12.2037 13.3457 12.8261H21.4032Z" stroke="black" stroke-linecap="round" stroke-linejoin="round"/>
<path d="M18.3658 6.90686H17.5319C17.0059 7.8783 16.0558 8.64049 14.8905 9.0123V9.27217H16.2779V12.8266H18.3658V6.90686Z" stroke="black" stroke-linecap="round" stroke-linejoin="round"/>
</svg>
