<svg xmlns="http://www.w3.org/2000/svg" enable-background="new 0 0 64 64" viewBox="0 0 64 64" id="bottle"><path d="M38.04 1.03v4.57H25.96V1c0-.17.11-.3.28-.34 3.63-.9 7.53-.88 11.56.03C37.94.72 38.04.87 38.04 1.03zM45.25 29.58c0 .23 0 .44-.01.67-2.35-.16-4.45.09-6.34.83-.54.22-1.07.43-1.61.65-2.64 1.06-5.38 2.17-8.17 2.26-2.97.1-6.55-.68-10.33-2.26v-.21c0-.63-.02-1.28-.03-1.94-.05-1.93-.1-3.92.27-5.69.7-3.31 2.68-7.32 5.32-10.72 1.11-1.43 1.72-4.09 1.97-5.5h11.38c.25 1.41.86 4.07 1.97 5.5 2.63 3.4 4.61 7.4 5.32 10.72C45.35 25.66 45.3 27.65 45.25 29.58z"></path><path d="M45.21,32.32V59.3c0,2.59-1.95,4.7-4.35,4.7H23.13c-2.4,0-4.35-2.11-4.35-4.7V33.96c2.75,1.07,6.29,2.11,9.8,2.11
		c0.21,0,0.4,0,0.6-0.01c3.16-0.11,6.07-1.28,8.87-2.42c0.54-0.22,1.06-0.42,1.59-0.63C41.27,32.37,43.12,32.16,45.21,32.32z"></path></svg>