<svg width="48" height="48" viewBox="0 0 48 48" fill="none" xmlns="http://www.w3.org/2000/svg">
<rect width="48" height="48" rx="12" fill="#F9FAFB"/>
<path d="M38.3846 8H9.61538C8.92174 8 8.25651 8.30649 7.76603 8.85205C7.27555 9.39761 7 10.1376 7 10.9091V37.0909C7 37.8624 7.27555 38.6024 7.76603 39.1479C8.25651 39.6935 8.92174 40 9.61538 40H38.3846C39.0783 40 39.7435 39.6935 40.234 39.1479C40.7244 38.6024 41 37.8624 41 37.0909V10.9091C41 10.1376 40.7244 9.39761 40.234 8.85205C39.7435 8.30649 39.0783 8 38.3846 8ZM18.2462 27.2C18.5236 27.4315 18.707 27.776 18.7561 28.1579C18.8051 28.5398 18.7158 28.9277 18.5077 29.2364C18.2996 29.545 17.9898 29.749 17.6465 29.8036C17.3031 29.8581 16.9544 29.7587 16.6769 29.5273L11.4462 25.1636C11.2837 25.0281 11.1519 24.8525 11.0611 24.6505C10.9703 24.4485 10.9231 24.2258 10.9231 24C10.9231 23.7742 10.9703 23.5515 11.0611 23.3495C11.1519 23.1475 11.2837 22.9719 11.4462 22.8364L16.6769 18.4727C16.9544 18.2413 17.3031 18.1419 17.6465 18.1964C17.9898 18.251 18.2996 18.455 18.5077 18.7636C18.7158 19.0723 18.8051 19.4602 18.7561 19.8421C18.707 20.224 18.5236 20.5685 18.2462 20.8L14.4097 24L18.2462 27.2ZM27.8724 14.2182L22.6416 34.5818C22.5971 34.7687 22.5194 34.9439 22.4133 35.097C22.3071 35.2502 22.1745 35.3782 22.0234 35.4737C21.8722 35.5692 21.7054 35.6302 21.5328 35.6531C21.3601 35.6761 21.1851 35.6605 21.018 35.6073C20.8508 35.5541 20.6949 35.4644 20.5593 35.3433C20.4237 35.2223 20.3111 35.0725 20.2282 34.9025C20.1453 34.7325 20.0937 34.5458 20.0764 34.3534C20.0592 34.161 20.0766 33.9667 20.1276 33.7818L25.3584 13.4182C25.4589 13.0541 25.6838 12.7483 25.9848 12.5667C26.2858 12.3851 26.6389 12.342 26.9681 12.4468C27.2974 12.5515 27.5765 12.7958 27.7456 13.127C27.9147 13.4582 27.9602 13.85 27.8724 14.2182ZM36.5538 25.1636L31.3231 29.5273C31.0456 29.7587 30.6969 29.8581 30.3535 29.8036C30.0102 29.749 29.7004 29.545 29.4923 29.2364C29.2842 28.9277 29.1949 28.5398 29.2439 28.1579C29.293 27.776 29.4764 27.4315 29.7538 27.2L33.5903 24L29.7538 20.8C29.6165 20.6854 29.5007 20.5418 29.4132 20.3774C29.3257 20.2131 29.2682 20.0312 29.2439 19.8421C29.2196 19.653 29.2291 19.4604 29.2717 19.2754C29.3143 19.0903 29.3893 18.9164 29.4923 18.7636C29.5953 18.6108 29.7244 18.4821 29.8722 18.3848C30.02 18.2874 30.1835 18.2235 30.3535 18.1964C30.5235 18.1694 30.6966 18.1799 30.863 18.2273C31.0294 18.2747 31.1857 18.3581 31.3231 18.4727L36.5538 22.8364C36.7163 22.9719 36.8481 23.1475 36.9389 23.3495C37.0297 23.5515 37.0769 23.7742 37.0769 24C37.0769 24.2258 37.0297 24.4485 36.9389 24.6505C36.8481 24.8525 36.7163 25.0281 36.5538 25.1636Z" fill="black"/>
</svg>
