<svg xmlns="http://www.w3.org/2000/svg" width="96" height="96" fill="none" viewBox="0 0 96 96" id="coding"><path stroke="#000" stroke-linecap="round" stroke-width="5" d="M15 87H81C83.7614 87 86 84.7614 86 82V61.8199 40.2891 15C86 12.2386 83.7614 10 81 10H49.8537 15C12.2386 10 10 12.2386 10 15V60.3602 82C10 84.7614 12.2386 87 15 87zM10 25H86M45 65L51 44"></path><circle cx="17" cy="18" r="2" fill="#000"></circle><circle cx="24" cy="18" r="2" fill="#000"></circle><circle cx="31" cy="18" r="2" fill="#000"></circle><path stroke="#000" stroke-linecap="round" stroke-width="5" d="M60 44L69.4844 53.0533C70.3098 53.8412 70.3098 55.1588 69.4844 55.9467L60 65M36 65L26.5156 55.9467C25.6902 55.1588 25.6902 53.8412 26.5156 53.0533L36 44"></path></svg>