<svg width="25" height="24" viewBox="0 0 25 24" fill="none" xmlns="http://www.w3.org/2000/svg">
<path d="M22.75 8.27V4.23C22.75 2.64 22.11 2 20.52 2H16.48C14.89 2 14.25 2.64 14.25 4.23V8.27C14.25 9.86 14.89 10.5 16.48 10.5H20.52C22.11 10.5 22.75 9.86 22.75 8.27Z" stroke="#1D3A70" stroke-width="1.5" stroke-linecap="round" stroke-linejoin="round"/>
<path d="M11.25 8.52V3.98C11.25 2.57 10.61 2 9.02 2H4.98C3.39 2 2.75 2.57 2.75 3.98V8.51C2.75 9.93 3.39 10.49 4.98 10.49H9.02C10.61 10.5 11.25 9.93 11.25 8.52Z" stroke="#1D3A70" stroke-width="1.5" stroke-linecap="round" stroke-linejoin="round"/>
<path d="M11.25 19.77V15.73C11.25 14.14 10.61 13.5 9.02 13.5H4.98C3.39 13.5 2.75 14.14 2.75 15.73V19.77C2.75 21.36 3.39 22 4.98 22H9.02C10.61 22 11.25 21.36 11.25 19.77Z" stroke="#1D3A70" stroke-width="1.5" stroke-linecap="round" stroke-linejoin="round"/>
<path d="M15.25 17.5H21.25" stroke="black" stroke-width="1.5" stroke-linecap="round"/>
<path d="M18.25 20.5V14.5" stroke="black" stroke-width="1.5" stroke-linecap="round"/>
</svg>
