<svg width="39" height="40" viewBox="0 0 39 40" fill="none" xmlns="http://www.w3.org/2000/svg">
<rect width="39" height="40" rx="12" fill="#F9FAFB"/>
<path d="M14.3529 22.9474V24.6316C14.3528 25.0565 14.5023 25.4657 14.7714 25.7773C15.0405 26.0889 15.4093 26.2797 15.8039 26.3116L15.9216 26.3158H18.2745V28H15.9216C15.0895 28 14.2915 27.6451 13.7032 27.0134C13.1148 26.3817 12.7843 25.5249 12.7843 24.6316V22.9474H14.3529ZM24.549 18.7368L28 28H26.3098L25.3678 25.4737H22.16L21.2196 28H19.5302L22.9804 18.7368H24.549ZM23.7647 21.1663L22.7867 23.7895H24.7412L23.7647 21.1663ZM16.7059 12V13.6842H19.8431V19.5789H16.7059V22.1053H15.1373V19.5789H12V13.6842H15.1373V12H16.7059ZM23.7647 12.8421C24.5968 12.8421 25.3947 13.197 25.9831 13.8287C26.5714 14.4604 26.902 15.3172 26.902 16.2105V17.8947H25.3333V16.2105C25.3333 15.7638 25.1681 15.3355 24.8739 15.0196C24.5797 14.7038 24.1807 14.5263 23.7647 14.5263H21.4118V12.8421H23.7647ZM15.1373 15.3684H13.5686V17.8947H15.1373V15.3684ZM18.2745 15.3684H16.7059V17.8947H18.2745V15.3684Z" fill="#7B61FF"/>
</svg>
