<svg width="25" height="24" viewBox="0 0 25 24" fill="none" xmlns="http://www.w3.org/2000/svg">
<path d="M9.75 13.75C9.75 14.72 10.5 15.5 11.42 15.5H13.3C14.1 15.5 14.75 14.82 14.75 13.97C14.75 13.06 14.35 12.73 13.76 12.52L10.75 11.47C10.16 11.26 9.76001 10.94 9.76001 10.02C9.76001 9.17999 10.41 8.48999 11.21 8.48999H13.09C14.01 8.48999 14.76 9.26999 14.76 10.24" stroke="black" stroke-width="1.5" stroke-linecap="round" stroke-linejoin="round"/>
<path d="M12.25 7.5V16.5" stroke="black" stroke-width="1.5" stroke-linecap="round" stroke-linejoin="round"/>
<path d="M22.25 12C22.25 17.52 17.77 22 12.25 22C6.73 22 2.25 17.52 2.25 12C2.25 6.48 6.73 2 12.25 2" stroke="#1D3A70" stroke-width="1.5" stroke-linecap="round" stroke-linejoin="round"/>
<path d="M17.25 3V7H21.25" stroke="black" stroke-width="1.5" stroke-linecap="round" stroke-linejoin="round"/>
<path d="M22.25 2L17.25 7" stroke="black" stroke-width="1.5" stroke-linecap="round" stroke-linejoin="round"/>
</svg>
