<svg width="25" height="24" viewBox="0 0 25 24" fill="none" xmlns="http://www.w3.org/2000/svg">
<path d="M10.25 13.75C10.25 14.72 11 15.5 11.92 15.5H13.8C14.6 15.5 15.25 14.82 15.25 13.97C15.25 13.06 14.85 12.73 14.26 12.52L11.25 11.47C10.66 11.26 10.26 10.94 10.26 10.02C10.26 9.17999 10.91 8.48999 11.71 8.48999H13.59C14.51 8.48999 15.26 9.26999 15.26 10.24" stroke="black" stroke-width="1.5" stroke-linecap="round" stroke-linejoin="round"/>
<path d="M12.75 7.5V16.5" stroke="black" stroke-width="1.5" stroke-linecap="round" stroke-linejoin="round"/>
<path d="M22.75 12C22.75 17.52 18.27 22 12.75 22C7.23 22 2.75 17.52 2.75 12C2.75 6.48 7.23 2 12.75 2" stroke="#1D3A70" stroke-width="1.5" stroke-linecap="round" stroke-linejoin="round"/>
<path d="M22.75 6V2H18.75" stroke="black" stroke-width="1.5" stroke-linecap="round" stroke-linejoin="round"/>
<path d="M17.75 7L22.75 2" stroke="black" stroke-width="1.5" stroke-linecap="round" stroke-linejoin="round"/>
</svg>
