<svg width="32" height="28" viewBox="0 0 32 28" fill="none" xmlns="http://www.w3.org/2000/svg">
<path opacity="0.2" d="M30 12.25V15.75C30 16.2141 29.7893 16.6592 29.4142 16.9874C29.0391 17.3156 28.5304 17.5 28 17.5H27L24.7375 23.0442C24.6681 23.2143 24.5403 23.3614 24.3715 23.4654C24.2028 23.5694 24.0014 23.6251 23.795 23.625H22.205C21.9986 23.6251 21.7972 23.5694 21.6285 23.4654C21.4597 23.3614 21.3319 23.2143 21.2625 23.0442L20.7863 21.875H12.2138L11.7375 23.0442C11.6681 23.2143 11.5403 23.3614 11.3715 23.4654C11.2028 23.5694 11.0014 23.6251 10.795 23.625H9.20501C8.99862 23.6251 8.79723 23.5694 8.62849 23.4654C8.45975 23.3614 8.3319 23.2143 8.26251 23.0442L6.62501 19.0312C4.93419 17.4204 3.99722 15.3122 4.00001 13.125C4.00001 10.8044 5.05357 8.57876 6.92894 6.93782C8.8043 5.29687 11.3478 4.375 14 4.375H18C19.9514 4.37451 21.8603 4.87358 23.4915 5.81072C25.1226 6.74786 26.4048 8.08212 27.18 9.64906C27.3171 9.92719 27.4381 10.2112 27.5425 10.5H28C28.5304 10.5 29.0391 10.6844 29.4142 11.0126C29.7893 11.3408 30 11.7859 30 12.25Z" fill="#C29625"/>
<path d="M24 12.6875C24 12.9471 23.912 13.2008 23.7472 13.4167C23.5824 13.6325 23.3481 13.8008 23.074 13.9001C22.7999 13.9994 22.4983 14.0254 22.2074 13.9748C21.9164 13.9241 21.6491 13.7991 21.4393 13.6156C21.2296 13.432 21.0867 13.1982 21.0288 12.9436C20.9709 12.689 21.0006 12.4251 21.1142 12.1852C21.2277 11.9454 21.42 11.7404 21.6666 11.5962C21.9133 11.452 22.2033 11.375 22.5 11.375C22.8978 11.375 23.2794 11.5133 23.5607 11.7594C23.842 12.0056 24 12.3394 24 12.6875ZM19 7H14C13.7348 7 13.4804 7.09219 13.2929 7.25628C13.1054 7.42038 13 7.64294 13 7.875C13 8.10706 13.1054 8.32962 13.2929 8.49372C13.4804 8.65781 13.7348 8.75 14 8.75H19C19.2652 8.75 19.5196 8.65781 19.7071 8.49372C19.8946 8.32962 20 8.10706 20 7.875C20 7.64294 19.8946 7.42038 19.7071 7.25628C19.5196 7.09219 19.2652 7 19 7ZM31 12.25V15.75C31 16.4462 30.6839 17.1139 30.1213 17.6062C29.5587 18.0984 28.7956 18.375 28 18.375H27.705L25.6787 23.3384C25.54 23.6784 25.2845 23.9725 24.9473 24.1805C24.6101 24.3884 24.2076 24.5 23.795 24.5H22.205C21.7924 24.5 21.3899 24.3884 21.0527 24.1805C20.7155 23.9725 20.46 23.6784 20.3212 23.3384L20.0812 22.75H12.9187L12.6787 23.3384C12.54 23.6784 12.2845 23.9725 11.9473 24.1805C11.6101 24.3884 11.2076 24.5 10.795 24.5H9.205C8.79243 24.5 8.38995 24.3884 8.05271 24.1805C7.71547 23.9725 7.45998 23.6784 7.32125 23.3384L5.75 19.4928C4.25523 18.0125 3.31926 16.1645 3.07 14.2013C2.74728 14.3496 2.47702 14.5722 2.28844 14.8452C2.09985 15.1182 2.00011 15.431 2 15.75C2 15.9821 1.89464 16.2046 1.70711 16.3687C1.51957 16.5328 1.26522 16.625 1 16.625C0.734783 16.625 0.48043 16.5328 0.292893 16.3687C0.105357 16.2046 0 15.9821 0 15.75C0.00152797 14.9697 0.301028 14.2122 0.850917 13.5979C1.40081 12.9835 2.16955 12.5476 3.035 12.3594C3.2584 9.94801 4.51003 7.69835 6.54135 6.0571C8.57268 4.41586 11.2351 3.50307 14 3.5H27C27.2652 3.5 27.5196 3.59219 27.7071 3.75628C27.8946 3.92038 28 4.14294 28 4.375C28 4.60706 27.8946 4.82962 27.7071 4.99372C27.5196 5.15781 27.2652 5.25 27 5.25H24.3262C25.9858 6.26882 27.291 7.66941 28.0975 9.29688C28.1512 9.40625 28.2037 9.51562 28.2537 9.625C29.0046 9.68077 29.704 9.98176 30.2129 10.4681C30.7217 10.9545 31.0027 11.5906 31 12.25ZM29 12.25C29 12.0179 28.8946 11.7954 28.7071 11.6313C28.5196 11.4672 28.2652 11.375 28 11.375H27.5425C27.3295 11.3752 27.122 11.3159 26.9503 11.2057C26.7785 11.0956 26.6514 10.9403 26.5875 10.7625C26.0146 9.16271 24.8723 7.76499 23.3275 6.77332C21.7826 5.78164 19.916 5.24791 18 5.25H14C12.2534 5.24992 10.5445 5.69453 9.08171 6.52962C7.61891 7.36471 6.46543 8.55419 5.76191 9.95301C5.05839 11.3518 4.83524 12.8995 5.11967 14.4074C5.4041 15.9153 6.18382 17.3182 7.36375 18.445C7.45398 18.5309 7.52368 18.6316 7.56875 18.7414L9.205 22.75H10.795L11.2725 21.5808C11.3418 21.4109 11.4695 21.2639 11.638 21.1599C11.8065 21.056 12.0076 21.0001 12.2137 21H20.7862C20.9924 21.0001 21.1935 21.056 21.362 21.1599C21.5305 21.2639 21.6582 21.4109 21.7275 21.5808L22.205 22.75H23.795L26.0587 17.2058C26.1281 17.0359 26.2557 16.8889 26.4242 16.7849C26.5927 16.6809 26.7938 16.6251 27 16.625H28C28.2652 16.625 28.5196 16.5328 28.7071 16.3687C28.8946 16.2046 29 15.9821 29 15.75V12.25Z" fill="#C29625"/>
</svg>
