<svg xmlns="http://www.w3.org/2000/svg" data-name="Layer 1" viewBox="0 0 32 32" id="savings"><path d="M20.5,10v.5a.5.5,0,0,0,1,0V10a2,2,0,0,0,1.1-.33,2.071,2.071,0,0,0,.67-.74A1.942,1.942,0,0,0,23.5,8a2.006,2.006,0,0,0-2-2h-1a1,1,0,0,1,0-2h1a1,1,0,0,1,1,1,.5.5,0,0,0,1,0,2.006,2.006,0,0,0-2-2V2.5a.5.5,0,0,0-1,0V3a2,2,0,0,0,0,4h1a1,1,0,0,1,1,1,.9.9,0,0,1-.09.4.991.991,0,0,1-.91.6h-1a1,1,0,0,1-.97-.76A.986.986,0,0,1,19.5,8a.5.5,0,0,0-1-.03V8A2.006,2.006,0,0,0,20.5,10Zm11,5a.5.5,0,0,0-.5.5A2.5,2.5,0,0,1,28.5,18c-.042,0-.088-.014-.13-.016a1.666,1.666,0,0,0,.01-.214,10.106,10.106,0,0,0-2.7-6.78A6.42,6.42,0,0,0,27.5,6.5a6.5,6.5,0,0,0-13,0,.57.57,0,0,0,.01.13,14.369,14.369,0,0,0-4.59.97L6.76,5.67a.5.5,0,0,0-.5-.01A.509.509,0,0,0,6,6.1V9.93A10.713,10.713,0,0,0,2.41,16H1.5A1.5,1.5,0,0,0,0,17.5v3A1.5,1.5,0,0,0,1.5,22H3.22A11.467,11.467,0,0,0,7,26.38V30.5A1.5,1.5,0,0,0,8.5,32h3A1.5,1.5,0,0,0,13,30.5V28.76a14.729,14.729,0,0,0,5-.07V30.5A1.5,1.5,0,0,0,19.5,32h3A1.5,1.5,0,0,0,24,30.5V26.1a10.745,10.745,0,0,0,4.3-7.11v-.014c.065,0,.133.024.2.024A3.5,3.5,0,0,0,32,15.5.5.5,0,0,0,31.5,15ZM21,1a5.489,5.489,0,0,1,3.98,9.28,4.594,4.594,0,0,1-.74.65A5.383,5.383,0,0,1,21,12a5.522,5.522,0,0,1-5.39-4.4,4.712,4.712,0,0,1-.1-1,.34.34,0,0,1-.01-.1A5.51,5.51,0,0,1,21,1Zm6.36,17.3a.486.486,0,0,0-.01.12,9.683,9.683,0,0,1-4.14,7.02.521.521,0,0,0-.21.41V30.5a.5.5,0,0,1-.5.5h-3a.5.5,0,0,1-.5-.5V28.08a.479.479,0,0,0-.19-.39.455.455,0,0,0-.31-.11.41.41,0,0,0-.11.01,14,14,0,0,1-5.8.08.484.484,0,0,0-.41.11.5.5,0,0,0-.18.38V30.5a.5.5,0,0,1-.5.5h-3a.5.5,0,0,1-.5-.5V26.12a.491.491,0,0,0-.22-.41A10.5,10.5,0,0,1,4,21.3a.505.505,0,0,0-.46-.3H1.5a.5.5,0,0,1-.5-.5v-3a.5.5,0,0,1,.5-.5H2.83a.505.505,0,0,0,.5-.43,9.729,9.729,0,0,1,3.49-6.03A.494.494,0,0,0,7,10.16V6.99L9.61,8.58a.478.478,0,0,0,.45.04,13.545,13.545,0,0,1,4.54-1A6.509,6.509,0,0,0,21,13a6.386,6.386,0,0,0,3.94-1.35,9.113,9.113,0,0,1,2.44,6.12C27.38,17.95,27.37,18.12,27.36,18.3ZM7,15a1,1,0,1,0,1,1A1,1,0,0,0,7,15Z"></path></svg>