<?xml version="1.0" encoding="utf-8"?>

<!-- Uploaded to: SVG Repo, www.svgrepo.com, Generator: SVG Repo Mixer Tools -->
<svg fill="#000000" height="800px" width="800px" version="1.1" id="Icons" xmlns="http://www.w3.org/2000/svg" xmlns:xlink="http://www.w3.org/1999/xlink" 
	 viewBox="0 0 32 32" xml:space="preserve">
<path d="M32,18.9l-0.8-6.2c-0.2-1.5-1.5-2.6-3-2.6H1c-0.6,0-1,0.4-1,1v13c0,0.6,0.4,1,1,1h3.2c0.4,1.2,1.5,2,2.8,2
	c1,0,2-0.5,2.5-1.3C10,26.5,11,27,12,27c1.3,0,2.4-0.8,2.8-2h7.4c0.4,1.2,1.5,2,2.8,2s2.4-0.8,2.8-2H31c0.6,0,1-0.4,1-1v-5
	C32,19,32,18.9,32,18.9z M28.2,12c0.5,0,0.9,0.4,1,0.9l0.6,5.1h-1c-1.6,0-3-0.6-4.1-1.7C24.5,16.1,24.3,16,24,16H2v-4H28.2z M7,25
	c-0.6,0-1-0.4-1-1c0,0,0,0,0,0s0,0,0,0c0-0.6,0.4-1,1-1c0.6,0,1,0.4,1,1S7.6,25,7,25z M12,25c-0.6,0-1-0.4-1-1s0.4-1,1-1s1,0.4,1,1
	S12.6,25,12,25z M25,25c-0.6,0-1-0.4-1-1s0.4-1,1-1s1,0.4,1,1S25.6,25,25,25z"/>
</svg>