<svg width="18" height="18" viewBox="0 0 18 18" fill="none" xmlns="http://www.w3.org/2000/svg">
<path d="M0.194071 10.8535C-0.0646903 9.63138 -0.0646903 8.36862 0.194071 7.1465C1.1928 7.26347 2.06557 6.93326 2.34989 6.24584C2.63511 5.55753 2.25272 4.70725 1.46273 4.08372C2.14388 3.0367 3.0367 2.14388 4.08372 1.46273C4.70636 2.25182 5.55753 2.63511 6.24584 2.34989C6.93416 2.06467 7.26437 1.1928 7.1465 0.194071C8.36862 -0.0646903 9.63138 -0.0646903 10.8535 0.194071C10.7365 1.1928 11.0667 2.06557 11.7542 2.34989C12.4425 2.63511 13.2927 2.25272 13.9163 1.46273C14.9633 2.14388 15.8561 3.0367 16.5373 4.08372C15.7482 4.70636 15.3649 5.55753 15.6501 6.24584C15.9353 6.93416 16.8072 7.26437 17.8059 7.1465C18.0647 8.36862 18.0647 9.63138 17.8059 10.8535C16.8072 10.7365 15.9344 11.0667 15.6501 11.7542C15.3649 12.4425 15.7473 13.2927 16.5373 13.9163C15.8561 14.9633 14.9633 15.8561 13.9163 16.5373C13.2936 15.7482 12.4425 15.3649 11.7542 15.6501C11.0658 15.9353 10.7356 16.8072 10.8535 17.8059C9.63138 18.0647 8.36862 18.0647 7.1465 17.8059C7.26347 16.8072 6.93326 15.9344 6.24584 15.6501C5.55753 15.3649 4.70725 15.7473 4.08372 16.5373C3.0367 15.8561 2.14388 14.9633 1.46273 13.9163C2.25182 13.2936 2.63511 12.4425 2.34989 11.7542C2.06467 11.0658 1.1928 10.7356 0.194071 10.8535ZM1.80194 9.18895C2.79167 9.46337 3.60775 10.0905 4.01264 11.0658C4.41663 12.0421 4.28257 13.0633 3.77691 13.9559C3.86328 14.0476 3.95236 14.1367 4.04413 14.2231C4.93759 13.7174 5.95792 13.5843 6.93416 13.9874C7.90949 14.3922 8.53662 15.2083 8.81105 16.1981C8.93702 16.2017 9.06298 16.2017 9.18895 16.1981C9.46337 15.2083 10.0905 14.3922 11.0658 13.9874C12.0421 13.5834 13.0633 13.7174 13.9559 14.2231C14.0476 14.1367 14.1367 14.0476 14.2231 13.9559C13.7174 13.0624 13.5843 12.0421 13.9874 11.0658C14.3922 10.0905 15.2083 9.46337 16.1981 9.18895C16.2017 9.06298 16.2017 8.93702 16.1981 8.81105C15.2083 8.53662 14.3922 7.90949 13.9874 6.93416C13.5834 5.95792 13.7174 4.93669 14.2231 4.04413C14.1364 3.95272 14.0473 3.86361 13.9559 3.77691C13.0624 4.28257 12.0421 4.41573 11.0658 4.01264C10.0905 3.60775 9.46337 2.79167 9.18895 1.80194C9.063 1.7986 8.93699 1.7986 8.81105 1.80194C8.53662 2.79167 7.90949 3.60775 6.93416 4.01264C5.95792 4.41663 4.93669 4.28257 4.04413 3.77691C3.95236 3.86328 3.86328 3.95236 3.77691 4.04413C4.28257 4.93759 4.41573 5.95792 4.01264 6.93416C3.60775 7.90949 2.79167 8.53662 1.80194 8.81105C1.79834 8.93702 1.79834 9.06298 1.80194 9.18895ZM9 11.6993C8.28411 11.6993 7.59754 11.4149 7.09132 10.9087C6.58511 10.4025 6.30073 9.71589 6.30073 9C6.30073 8.28411 6.58511 7.59754 7.09132 7.09132C7.59754 6.58511 8.28411 6.30073 9 6.30073C9.71589 6.30073 10.4025 6.58511 10.9087 7.09132C11.4149 7.59754 11.6993 8.28411 11.6993 9C11.6993 9.71589 11.4149 10.4025 10.9087 10.9087C10.4025 11.4149 9.71589 11.6993 9 11.6993ZM9 9.89976C9.23863 9.89976 9.46749 9.80496 9.63622 9.63622C9.80496 9.46749 9.89976 9.23863 9.89976 9C9.89976 8.76137 9.80496 8.53251 9.63622 8.36377C9.46749 8.19504 9.23863 8.10024 9 8.10024C8.76137 8.10024 8.53251 8.19504 8.36377 8.36377C8.19504 8.53251 8.10024 8.76137 8.10024 9C8.10024 9.23863 8.19504 9.46749 8.36377 9.63622C8.53251 9.80496 8.76137 9.89976 9 9.89976Z" fill="#5FA8EE"/>
</svg>
