<svg width="16" height="20" viewBox="0 0 16 20" fill="none" xmlns="http://www.w3.org/2000/svg">
<path d="M7.99953 14.9483C11.4035 14.9483 14.3808 16.4759 16 18.7551L14.2878 19.5999C12.9697 17.9705 10.6459 16.8881 7.99953 16.8881C5.35316 16.8881 3.02934 17.9705 1.71126 19.5999L0 18.7542C1.61924 16.4749 4.5956 14.9483 7.99953 14.9483ZM7.99953 0.399902C9.23217 0.399902 10.4143 0.910827 11.2859 1.82028C12.1575 2.72973 12.6472 3.96321 12.6472 5.24937V8.15905C12.6471 9.40872 12.1847 10.6101 11.3564 11.5127C10.5281 12.4153 9.39778 12.9494 8.20124 13.0037L7.99953 13.0085C6.7669 13.0085 5.58475 12.4976 4.71315 11.5881C3.84155 10.6787 3.35189 9.4452 3.35189 8.15905V5.24937C3.35195 3.9997 3.81436 2.79829 4.64269 1.89569C5.47101 0.993096 6.60129 0.458988 7.79783 0.404752L7.99953 0.399902ZM7.99953 2.33969C7.28825 2.33965 6.60383 2.62321 6.08632 3.13237C5.56881 3.64152 5.25732 4.33777 5.21559 5.07867L5.21095 5.24937V8.15905C5.21025 8.91644 5.49261 9.64427 5.99804 10.1879C6.50348 10.7315 7.19214 11.0481 7.9177 11.0703C8.64326 11.0925 9.34854 10.8187 9.88367 10.3069C10.4188 9.79517 10.7416 9.08588 10.7835 8.32975L10.7881 8.15905V5.24937C10.7881 4.47767 10.4943 3.73758 9.97137 3.19191C9.4484 2.64624 8.73911 2.33969 7.99953 2.33969Z" fill="#203C71"/>
</svg>
