<svg width="16" height="16" viewBox="0 0 16 16" fill="none" xmlns="http://www.w3.org/2000/svg">
<path d="M14.2222 6.4H15.1111C15.3469 6.4 15.573 6.48429 15.7397 6.63432C15.9064 6.78434 16 6.98783 16 7.2V15.2C16 15.4122 15.9064 15.6157 15.7397 15.7657C15.573 15.9157 15.3469 16 15.1111 16H0.888889C0.653141 16 0.427048 15.9157 0.260349 15.7657C0.0936505 15.6157 0 15.4122 0 15.2V7.2C0 6.98783 0.0936505 6.78434 0.260349 6.63432C0.427048 6.48429 0.653141 6.4 0.888889 6.4H1.77778V5.6C1.77778 4.8646 1.93872 4.1364 2.25142 3.45697C2.56411 2.77755 3.02244 2.16021 3.60022 1.6402C4.17801 1.12019 4.86394 0.707701 5.61886 0.426275C6.37377 0.144848 7.18289 0 8 0C8.81711 0 9.62623 0.144848 10.3811 0.426275C11.1361 0.707701 11.822 1.12019 12.3998 1.6402C12.9776 2.16021 13.4359 2.77755 13.7486 3.45697C14.0613 4.1364 14.2222 4.8646 14.2222 5.6V6.4ZM1.77778 8V14.4H14.2222V8H1.77778ZM7.11111 9.6H8.88889V12.8H7.11111V9.6ZM12.4444 6.4V5.6C12.4444 4.53913 11.9762 3.52172 11.1427 2.77157C10.3092 2.02143 9.17874 1.6 8 1.6C6.82126 1.6 5.6908 2.02143 4.8573 2.77157C4.02381 3.52172 3.55556 4.53913 3.55556 5.6V6.4H12.4444Z" fill="#FFB9AA"/>
</svg>
