<svg width="48" height="48" viewBox="0 0 48 48" fill="none" xmlns="http://www.w3.org/2000/svg">
<rect width="48" height="48" rx="12" fill="#F9FAFB"/>
<path fill-rule="evenodd" clip-rule="evenodd" d="M31.4492 6.93855C31.3232 7.11355 31.2055 7.29334 31.0967 7.47743L30.5067 8.43526L25.3428 10.7189L25.0359 10.8553C22.0658 12.2271 19.9725 14.8033 19.3442 17.8098C19.3259 17.892 19.3094 17.9791 19.282 18.122L19.2802 18.1335L19.2254 18.4177C18.7342 20.8762 17.3954 23.1334 15.3986 24.8695L13.93 26.1674C13.0094 26.9823 12.2678 27.6395 11.7125 28.2047C11.1463 28.7797 10.6896 29.3449 10.4156 29.9922C10.0541 30.8474 9.92572 31.768 10.0411 32.6769C10.1564 33.5859 10.5122 34.4568 11.0787 35.2167C11.5098 35.7917 12.0979 36.2452 12.7939 36.6855C13.4752 37.1159 14.3629 37.5973 15.4607 38.1921L16.7631 38.8985C17.8609 39.4933 18.7487 39.973 19.4885 40.3115C20.241 40.6565 20.9607 40.9144 21.7261 40.9785C22.7302 41.06 23.7409 40.909 24.6617 40.5397C25.5826 40.1704 26.383 39.5953 26.9868 38.869C27.4507 38.3186 27.7412 37.6663 27.9877 36.9237C28.2307 36.1926 28.4645 35.2644 28.7549 34.1061L29.2207 32.2644L29.292 31.9834C29.9247 29.5578 31.3932 27.374 33.4877 25.7436L33.4987 25.7353L33.7562 25.5283C36.2368 23.496 37.5483 20.5108 37.3328 17.455L37.3054 17.1395L36.8268 11.7721L37.4752 10.7173C37.5812 10.5481 37.6944 10.3624 37.7785 10.1948C37.8753 10.0043 37.9812 9.74468 37.9977 9.42759C38.0189 9.00489 37.8945 8.58659 37.6415 8.22989C37.4787 8.00761 37.2696 7.8157 37.0259 7.66472C36.8465 7.55206 36.6618 7.44627 36.4724 7.34764L34.9837 6.54096C34.7874 6.43095 34.5863 6.32791 34.3809 6.23209C34.1035 6.10217 33.7996 6.02446 33.4877 6.00372C32.9951 5.97702 32.5061 6.09462 32.094 6.33888C31.8354 6.49717 31.6154 6.70121 31.4474 6.93855M31.4291 10.7715L34.1179 12.2288L34.5709 17.3235C34.58 17.4287 34.5874 17.4928 34.5892 17.5437L32.6621 18.1204C32.0969 18.2896 31.4936 18.329 30.9072 18.2349C30.3208 18.1408 29.7699 17.9161 29.3047 17.5815C28.3635 16.9042 27.2262 16.4836 26.0275 16.3694C24.8288 16.2553 23.6188 16.4524 22.5407 16.9374L22.4312 16.9867C23.164 15.1987 24.6466 13.7401 26.5612 12.9238L31.4291 10.7715Z" fill="black"/>
</svg>
